<svg id="Layer_1" data-name="Layer 1" xmlns="http://www.w3.org/2000/svg" viewBox="0 0 84.85 84.85">
  <defs>
    <style>
      .cls-1 {
        fill: #be1e2d;
      }

      .cls-2 {
        fill: #231f20;
      }
    </style>
  </defs>
  <g>
    <polygon class="cls-1" points="42.43 57.98 21.21 79.2 5.66 63.64 26.87 42.43 5.66 21.21 21.21 5.66 42.43 26.87 63.64 5.66 79.2 21.21 57.98 42.43 79.2 63.64 63.64 79.2 42.43 57.98"/>
    <path class="cls-2" d="M71.21,18.89l9.9,9.9L65.56,44.34,59.9,50l5.66,5.66L81.11,71.21l-9.9,9.9L55.66,65.56,50,59.9l-5.66,5.66L28.79,81.11l-9.9-9.9L34.44,55.66,40.1,50l-5.66-5.66L18.89,28.79l9.9-9.9L44.34,34.44,50,40.1l5.66-5.66L71.21,18.89m0-11.32L50,28.79,28.79,7.57,7.57,28.79,28.79,50,7.57,71.21,28.79,92.43,50,71.21,71.21,92.43,92.43,71.21,71.21,50,92.43,28.79,71.21,7.57Z" transform="translate(-7.57 -7.57)"/>
  </g>
</svg>
