<svg id="Layer_1" data-name="Layer 1" xmlns="http://www.w3.org/2000/svg" viewBox="0 0 492.38 70.51">
  <defs>
    <style>
      .cls-1 {
        fill: #414042;
      }

      .cls-2 {
        fill: #58595b;
      }

      .cls-3 {
        fill: #00a651;
      }
    </style>
  </defs>
  <g>
    <path class="cls-1" d="M81.31,35.09A14.85,14.85,0,0,0,88.8,37.2c4.27,0,6.77-2.26,6.77-5.52,0-3-1.73-4.75-6.1-6.43-5.28-1.87-8.54-4.61-8.54-9.17,0-5,4.18-8.79,10.46-8.79a14.66,14.66,0,0,1,7.16,1.59L97.4,12.29a12.87,12.87,0,0,0-6.15-1.54c-4.42,0-6.1,2.64-6.1,4.85,0,3,2,4.51,6.44,6.24,5.47,2.11,8.25,4.75,8.25,9.5,0,5-3.69,9.32-11.33,9.32a16.72,16.72,0,0,1-8.25-2.07Z" transform="translate(0 -6.09)"/>
    <path class="cls-1" d="M110.11,10.41a2.49,2.49,0,0,1-2.68,2.6,2.52,2.52,0,0,1-2.55-2.6,2.58,2.58,0,0,1,2.64-2.64A2.51,2.51,0,0,1,110.11,10.41Zm-4.7,29.77V16.94h4.22V40.18Z" transform="translate(0 -6.09)"/>
    <path class="cls-1" d="M116.64,23.23c0-2.4,0-4.37-.19-6.29h3.7l.19,3.75h.14a8,8,0,0,1,7.3-4.28,6.85,6.85,0,0,1,6.57,4.66h.1a9.5,9.5,0,0,1,2.59-3,7.93,7.93,0,0,1,5.14-1.64c3.07,0,7.63,2,7.63,10.09V40.18h-4.13V27c0-4.46-1.63-7.15-5-7.15a5.47,5.47,0,0,0-5,3.84,7.06,7.06,0,0,0-.34,2.11V40.18h-4.12V26.25c0-3.69-1.64-6.38-4.85-6.38a5.77,5.77,0,0,0-5.23,4.22,5.88,5.88,0,0,0-.34,2.07v14h-4.13Z" transform="translate(0 -6.09)"/>
    <path class="cls-1" d="M176.11,33.84c0,2.4,0,4.51.2,6.34h-3.75l-.24-3.8h-.09a8.74,8.74,0,0,1-7.68,4.32c-3.65,0-8-2-8-10.17V16.94h4.22V29.81c0,4.41,1.35,7.39,5.19,7.39a5.93,5.93,0,0,0,5.95-6V16.94h4.22Z" transform="translate(0 -6.09)"/>
    <path class="cls-1" d="M183.12,6.09h4.22V40.18h-4.22Z" transform="translate(0 -6.09)"/>
    <path class="cls-1" d="M207.31,40.18,207,37.25h-.15a8.65,8.65,0,0,1-7.1,3.45c-4.71,0-7.11-3.31-7.11-6.67,0-5.61,5-8.69,14-8.64v-.48c0-1.92-.52-5.38-5.28-5.38a11.66,11.66,0,0,0-6.05,1.73l-1-2.78a14.43,14.43,0,0,1,7.64-2.07c7.1,0,8.83,4.85,8.83,9.51v8.69a33.7,33.7,0,0,0,.38,5.57Zm-.62-11.86c-4.61-.1-9.84.72-9.84,5.23a3.73,3.73,0,0,0,4,4,5.78,5.78,0,0,0,5.62-3.88,4.63,4.63,0,0,0,.24-1.35Z" transform="translate(0 -6.09)"/>
    <path class="cls-1" d="M222.48,10.27v6.67h6.05v3.22h-6.05V32.69c0,2.88.82,4.51,3.17,4.51a9.18,9.18,0,0,0,2.45-.29l.19,3.17a10.26,10.26,0,0,1-3.75.58A5.88,5.88,0,0,1,220,38.88c-1.2-1.25-1.63-3.31-1.63-6.05V20.16h-3.6V16.94h3.6V11.37Z" transform="translate(0 -6.09)"/>
    <path class="cls-1" d="M238,10.41A2.49,2.49,0,0,1,235.3,13a2.52,2.52,0,0,1-2.55-2.6,2.58,2.58,0,0,1,2.64-2.64A2.51,2.51,0,0,1,238,10.41Zm-4.7,29.77V16.94h4.22V40.18Z" transform="translate(0 -6.09)"/>
    <path class="cls-1" d="M265.54,28.37c0,8.59-6,12.33-11.57,12.33-6.29,0-11.14-4.6-11.14-12,0-7.78,5.09-12.34,11.52-12.34C261,16.41,265.54,21.26,265.54,28.37Zm-18.44.24c0,5.09,2.93,8.93,7.06,8.93s7.06-3.8,7.06-9c0-3.94-2-8.93-7-8.93S247.1,24.19,247.1,28.61Z" transform="translate(0 -6.09)"/>
    <path class="cls-1" d="M270.86,23.23c0-2.4,0-4.37-.19-6.29h3.75l.24,3.84h.09a8.54,8.54,0,0,1,7.68-4.37c3.22,0,8.21,1.92,8.21,9.89V40.18h-4.22V26.78c0-3.74-1.4-6.86-5.38-6.86a6,6,0,0,0-5.66,4.32,5.88,5.88,0,0,0-.29,2v14h-4.23Z" transform="translate(0 -6.09)"/>
    <path class="cls-1" d="M324.24,39.31a15.45,15.45,0,0,1-6.67,1.35c-7,0-11.57-4.76-11.57-11.86s4.9-12.34,12.48-12.34a14.25,14.25,0,0,1,5.86,1.2l-1,3.27a9.78,9.78,0,0,0-4.9-1.11c-5.33,0-8.21,3.94-8.21,8.79,0,5.37,3.46,8.69,8.07,8.69a11.94,11.94,0,0,0,5.18-1.16Z" transform="translate(0 -6.09)"/>
    <path class="cls-1" d="M349.92,28.37c0,8.59-5.95,12.33-11.57,12.33-6.29,0-11.13-4.6-11.13-12,0-7.78,5.08-12.34,11.52-12.34C345.41,16.41,349.92,21.26,349.92,28.37Zm-18.43.24c0,5.09,2.93,8.93,7.05,8.93s7.06-3.8,7.06-9c0-3.94-2-8.93-7-8.93S331.49,24.19,331.49,28.61Z" transform="translate(0 -6.09)"/>
    <path class="cls-1" d="M355.25,23.23c0-2.4-.05-4.37-.19-6.29h3.69l.19,3.75h.15a8,8,0,0,1,7.29-4.28A6.87,6.87,0,0,1,373,21.07h.1a9.5,9.5,0,0,1,2.59-3,7.91,7.91,0,0,1,5.14-1.64c3.07,0,7.63,2,7.63,10.09V40.18h-4.13V27c0-4.46-1.63-7.15-5-7.15a5.47,5.47,0,0,0-5,3.84,6.76,6.76,0,0,0-.34,2.11V40.18h-4.13V26.25c0-3.69-1.63-6.38-4.85-6.38a5.77,5.77,0,0,0-5.23,4.22,5.88,5.88,0,0,0-.33,2.07v14h-4.13Z" transform="translate(0 -6.09)"/>
    <path class="cls-1" d="M395.28,24.53c0-3-.1-5.38-.19-7.59h3.79l.19,4h.1a9.12,9.12,0,0,1,8.25-4.52c5.62,0,9.85,4.76,9.85,11.81,0,8.36-5.09,12.48-10.57,12.48a8.15,8.15,0,0,1-7.15-3.64h-.09V49.68h-4.18Zm4.18,6.19a9.25,9.25,0,0,0,.19,1.73A6.51,6.51,0,0,0,406,37.39c4.47,0,7.06-3.65,7.06-9,0-4.66-2.45-8.65-6.91-8.65A6.76,6.76,0,0,0,399.74,25a7,7,0,0,0-.28,1.72Z" transform="translate(0 -6.09)"/>
    <path class="cls-1" d="M422.59,6.09h4.22V40.18h-4.22Z" transform="translate(0 -6.09)"/>
    <path class="cls-1" d="M436.27,29.33c.1,5.71,3.74,8.06,8,8.06a15.3,15.3,0,0,0,6.43-1.2l.72,3a18.85,18.85,0,0,1-7.73,1.44c-7.15,0-11.42-4.71-11.42-11.72s4.13-12.53,10.89-12.53c7.59,0,9.61,6.68,9.61,11a15.38,15.38,0,0,1-.15,2Zm12.38-3c.05-2.69-1.1-6.86-5.85-6.86-4.27,0-6.15,3.94-6.48,6.86Z" transform="translate(0 -6.09)"/>
    <path class="cls-1" d="M463.05,10.27v6.67h6.05v3.22h-6.05V32.69c0,2.88.82,4.51,3.17,4.51a9.12,9.12,0,0,0,2.45-.29l.19,3.17a10.2,10.2,0,0,1-3.74.58,5.86,5.86,0,0,1-4.56-1.78c-1.2-1.25-1.63-3.31-1.63-6.05V20.16h-3.6V16.94h3.6V11.37Z" transform="translate(0 -6.09)"/>
    <path class="cls-1" d="M475.92,29.33c.09,5.71,3.74,8.06,8,8.06a15.33,15.33,0,0,0,6.43-1.2l.72,3a18.85,18.85,0,0,1-7.73,1.44c-7.15,0-11.42-4.71-11.42-11.72S476,16.41,482.78,16.41c7.59,0,9.6,6.68,9.6,11a15.77,15.77,0,0,1-.14,2Zm12.38-3c.05-2.69-1.1-6.86-5.85-6.86-4.28,0-6.15,3.94-6.48,6.86Z" transform="translate(0 -6.09)"/>
  </g>
  <g>
    <path class="cls-2" d="M84.81,61.82H81.12V60.49h9v1.33H86.39V72.63H84.81Z" transform="translate(0 -6.09)"/>
    <path class="cls-2" d="M97.93,68.2a4.25,4.25,0,0,1-4.34,4.62,4.14,4.14,0,0,1-4.18-4.48c0-2.92,1.91-4.63,4.33-4.63S97.93,65.53,97.93,68.2ZM91,68.29c0,1.91,1.09,3.35,2.64,3.35s2.65-1.43,2.65-3.39c0-1.48-.74-3.35-2.61-3.35S91,66.63,91,68.29Z" transform="translate(0 -6.09)"/>
    <path class="cls-2" d="M103.74,66.76c0-1.12,0-2-.07-2.85h1.42l.07,1.5h0a3.43,3.43,0,0,1,3.1-1.7c2.1,0,3.69,1.79,3.69,4.43,0,3.14-1.91,4.68-4,4.68a3.08,3.08,0,0,1-2.69-1.36h0v4.73h-1.57Zm1.57,2.32a3.32,3.32,0,0,0,.07.65,2.44,2.44,0,0,0,2.38,1.85c1.67,0,2.64-1.37,2.64-3.36,0-1.75-.91-3.25-2.59-3.25a2.52,2.52,0,0,0-2.39,2,2.33,2.33,0,0,0-.11.65Z" transform="translate(0 -6.09)"/>
    <path class="cls-2" d="M114.87,68.56a2.79,2.79,0,0,0,3,3,5.71,5.71,0,0,0,2.41-.45l.27,1.14a7,7,0,0,1-2.89.54,4.05,4.05,0,0,1-4.29-4.4c0-2.63,1.55-4.7,4.09-4.7,2.84,0,3.6,2.51,3.6,4.11,0,.32,0,.58,0,.74Zm4.65-1.14a2.25,2.25,0,0,0-2.2-2.57,2.62,2.62,0,0,0-2.43,2.57Z" transform="translate(0 -6.09)"/>
    <path class="cls-2" d="M122.86,66.63c0-1,0-1.91-.07-2.72h1.38l.06,1.71h.07a2.62,2.62,0,0,1,2.41-1.91,1.53,1.53,0,0,1,.45.06v1.49a2.76,2.76,0,0,0-.54-.05,2.21,2.21,0,0,0-2.12,2,4.14,4.14,0,0,0-.07.74v4.65h-1.57Z" transform="translate(0 -6.09)"/>
    <path class="cls-2" d="M129.29,72.63V65.12h-1.22V63.91h1.22V63.5a4.12,4.12,0,0,1,1-3,3.07,3.07,0,0,1,2.13-.8,3.65,3.65,0,0,1,1.35.25l-.22,1.22a2.33,2.33,0,0,0-1-.2c-1.35,0-1.69,1.19-1.69,2.52v.47H133v1.21h-2.11v7.51Z" transform="translate(0 -6.09)"/>
    <path class="cls-2" d="M142.11,68.2a4.25,4.25,0,0,1-4.34,4.62,4.13,4.13,0,0,1-4.17-4.48c0-2.92,1.9-4.63,4.32-4.63S142.11,65.53,142.11,68.2Zm-6.91.09c0,1.91,1.1,3.35,2.65,3.35s2.64-1.43,2.64-3.39c0-1.48-.74-3.35-2.61-3.35S135.2,66.63,135.2,68.29Z" transform="translate(0 -6.09)"/>
    <path class="cls-2" d="M144,66.63c0-1,0-1.91-.07-2.72h1.38l.06,1.71h.07a2.62,2.62,0,0,1,2.41-1.91,1.53,1.53,0,0,1,.45.06v1.49a2.76,2.76,0,0,0-.54-.05,2.21,2.21,0,0,0-2.12,2,4.14,4.14,0,0,0-.07.74v4.65H144Z" transform="translate(0 -6.09)"/>
    <path class="cls-2" d="M149.74,66.27c0-.9,0-1.64-.07-2.36h1.39l.07,1.41h.05a3,3,0,0,1,2.74-1.61,2.58,2.58,0,0,1,2.47,1.75h0a3.52,3.52,0,0,1,1-1.13,3,3,0,0,1,1.93-.62c1.15,0,2.86.76,2.86,3.78v5.14h-1.54V67.69c0-1.67-.62-2.68-1.9-2.68a2.05,2.05,0,0,0-1.87,1.44,2.68,2.68,0,0,0-.12.79v5.39H155.2V67.4c0-1.38-.61-2.39-1.82-2.39a2.16,2.16,0,0,0-2,1.58,2.24,2.24,0,0,0-.13.78v5.26h-1.55Z" transform="translate(0 -6.09)"/>
    <path class="cls-2" d="M173.4,72.63l-.13-1.1h-.05a3.27,3.27,0,0,1-2.67,1.29,2.48,2.48,0,0,1-2.66-2.5c0-2.1,1.87-3.26,5.24-3.24V66.9a1.8,1.8,0,0,0-2-2,4.36,4.36,0,0,0-2.26.65l-.36-1a5.38,5.38,0,0,1,2.86-.78c2.66,0,3.31,1.82,3.31,3.57v3.26a12.14,12.14,0,0,0,.15,2.09Zm-.24-4.45c-1.73,0-3.69.27-3.69,2A1.4,1.4,0,0,0,171,71.65a2.17,2.17,0,0,0,2.11-1.45,1.57,1.57,0,0,0,.09-.51Z" transform="translate(0 -6.09)"/>
    <path class="cls-2" d="M177,66.27c0-.9,0-1.64-.07-2.36h1.41l.08,1.44h0a3.2,3.2,0,0,1,2.88-1.64c1.21,0,3.08.72,3.08,3.71v5.21h-1.58v-5c0-1.4-.53-2.57-2-2.57a2.26,2.26,0,0,0-2.13,1.62,2.37,2.37,0,0,0-.1.74v5.24H177Z" transform="translate(0 -6.09)"/>
    <path class="cls-2" d="M191.61,72.63l-.12-1.1h-.06a3.24,3.24,0,0,1-2.66,1.29,2.47,2.47,0,0,1-2.66-2.5c0-2.1,1.87-3.26,5.23-3.24V66.9a1.79,1.79,0,0,0-2-2,4.36,4.36,0,0,0-2.26.65l-.37-1a5.44,5.44,0,0,1,2.87-.78c2.66,0,3.31,1.82,3.31,3.57v3.26a13.31,13.31,0,0,0,.14,2.09Zm-.23-4.45c-1.73,0-3.69.27-3.69,2a1.4,1.4,0,0,0,1.49,1.51,2.17,2.17,0,0,0,2.11-1.45,1.89,1.89,0,0,0,.09-.51Z" transform="translate(0 -6.09)"/>
    <path class="cls-2" d="M195.25,59.84h1.59V72.63h-1.59Z" transform="translate(0 -6.09)"/>
    <path class="cls-2" d="M200,63.91l1.91,5.15c.2.58.42,1.26.56,1.78h0c.16-.52.34-1.18.56-1.82l1.72-5.11h1.68L204,70.12c-1.13,3-1.91,4.52-3,5.46a4.44,4.44,0,0,1-1.94,1l-.4-1.34a4,4,0,0,0,1.39-.77,4.83,4.83,0,0,0,1.33-1.77,1.17,1.17,0,0,0,.13-.37,1.51,1.51,0,0,0-.11-.42l-3.22-8Z" transform="translate(0 -6.09)"/>
    <path class="cls-2" d="M207.45,71a4.23,4.23,0,0,0,2.09.63c1.15,0,1.69-.58,1.69-1.3s-.45-1.17-1.62-1.6c-1.56-.56-2.3-1.43-2.3-2.47,0-1.4,1.13-2.56,3-2.56a4.45,4.45,0,0,1,2.14.54l-.4,1.16a3.33,3.33,0,0,0-1.78-.51c-.94,0-1.46.54-1.46,1.19s.52,1,1.66,1.48c1.51.57,2.28,1.33,2.28,2.63,0,1.53-1.18,2.61-3.25,2.61a5,5,0,0,1-2.45-.6Z" transform="translate(0 -6.09)"/>
    <path class="cls-2" d="M216.28,61.46a.93.93,0,0,1-1,1,1,1,0,0,1-1-1,1,1,0,0,1,1-1A.93.93,0,0,1,216.28,61.46Zm-1.76,11.17V63.91h1.58v8.72Z" transform="translate(0 -6.09)"/>
    <path class="cls-2" d="M218.24,71a4.2,4.2,0,0,0,2.09.63c1.15,0,1.69-.58,1.69-1.3s-.45-1.17-1.62-1.6c-1.57-.56-2.31-1.43-2.31-2.47,0-1.4,1.14-2.56,3-2.56a4.42,4.42,0,0,1,2.14.54l-.39,1.16a3.35,3.35,0,0,0-1.79-.51c-.93,0-1.45.54-1.45,1.19s.52,1,1.65,1.48c1.52.57,2.29,1.33,2.29,2.63,0,1.53-1.19,2.61-3.26,2.61a5,5,0,0,1-2.45-.6Z" transform="translate(0 -6.09)"/>
    <path class="cls-2" d="M224.46,74.84a26.74,26.74,0,0,0,1.08-4.3l1.76-.18a21.75,21.75,0,0,1-1.71,4.37Z" transform="translate(0 -6.09)"/>
    <path class="cls-2" d="M239.23,72.3a5.73,5.73,0,0,1-2.5.51,4.14,4.14,0,0,1-4.34-4.45,4.43,4.43,0,0,1,4.68-4.63,5.39,5.39,0,0,1,2.2.45l-.36,1.23a3.63,3.63,0,0,0-1.84-.42,3.29,3.29,0,0,0,0,6.56,4.44,4.44,0,0,0,1.94-.44Z" transform="translate(0 -6.09)"/>
    <path class="cls-2" d="M240.82,59.84h1.58V72.63h-1.58Z" transform="translate(0 -6.09)"/>
    <path class="cls-2" d="M246.56,61.46a1,1,0,1,1-2,0,1,1,0,0,1,1-1A.94.94,0,0,1,246.56,61.46ZM244.8,72.63V63.91h1.58v8.72Z" transform="translate(0 -6.09)"/>
    <path class="cls-2" d="M255,72.3a5.73,5.73,0,0,1-2.5.51,4.14,4.14,0,0,1-4.34-4.45,4.43,4.43,0,0,1,4.68-4.63,5.43,5.43,0,0,1,2.2.45l-.36,1.23a3.66,3.66,0,0,0-1.84-.42,3.29,3.29,0,0,0-.06,6.56,4.45,4.45,0,0,0,1.95-.44Z" transform="translate(0 -6.09)"/>
    <path class="cls-2" d="M258.18,67.91h0c.21-.31.52-.68.77-1l2.56-3h1.91l-3.37,3.58,3.83,5.14H262l-3-4.18-.81.9v3.28h-1.57V59.84h1.57Z" transform="translate(0 -6.09)"/>
    <path class="cls-2" d="M270.78,61.41v2.5h2.27v1.21h-2.27v4.7c0,1.08.31,1.69,1.19,1.69a3.31,3.31,0,0,0,.92-.11l.07,1.19a3.8,3.8,0,0,1-1.41.22,2.22,2.22,0,0,1-1.71-.67,3.23,3.23,0,0,1-.61-2.27V65.12h-1.35V63.91h1.35V61.82Z" transform="translate(0 -6.09)"/>
    <path class="cls-2" d="M274.58,59.84h1.58v5.44h0a3,3,0,0,1,1.13-1.12,3.28,3.28,0,0,1,1.62-.45c1.17,0,3.05.72,3.05,3.73v5.19h-1.59v-5c0-1.4-.52-2.59-2-2.59a2.28,2.28,0,0,0-2.13,1.58,1.94,1.94,0,0,0-.11.76v5.26h-1.58Z" transform="translate(0 -6.09)"/>
    <path class="cls-2" d="M285.33,68.56a2.79,2.79,0,0,0,3,3,5.71,5.71,0,0,0,2.41-.45l.28,1.14a7.13,7.13,0,0,1-2.9.54,4.05,4.05,0,0,1-4.29-4.4c0-2.63,1.55-4.7,4.09-4.7,2.84,0,3.6,2.51,3.6,4.11,0,.32,0,.58-.05.74ZM290,67.42a2.25,2.25,0,0,0-2.2-2.57,2.62,2.62,0,0,0-2.43,2.57Z" transform="translate(0 -6.09)"/>
    <path class="cls-2" d="M296.58,64.69a20.87,20.87,0,0,1,1.7-4.29l1-.11a26,26,0,0,0-1.06,4.22Zm2.69,0a20.43,20.43,0,0,1,1.67-4.29l1-.11a24.1,24.1,0,0,0-1.06,4.22Z" transform="translate(0 -6.09)"/>
    <path class="cls-2" d="M304.46,68.81l-1.26,3.82h-1.62l4.13-12.14h1.89l4.14,12.14h-1.68l-1.29-3.82Zm4-1.22-1.18-3.5c-.28-.79-.45-1.51-.64-2.21h0c-.18.72-.38,1.46-.61,2.19l-1.19,3.52Z" transform="translate(0 -6.09)"/>
    <path class="cls-2" d="M320.69,59.84V70.38c0,.77,0,1.65.07,2.25h-1.42l-.07-1.52h0a3.22,3.22,0,0,1-3,1.71c-2.11,0-3.73-1.78-3.73-4.42,0-2.9,1.78-4.69,3.91-4.69a2.91,2.91,0,0,1,2.63,1.34h0V59.84Zm-1.58,7.62a2.56,2.56,0,0,0-.08-.67A2.32,2.32,0,0,0,316.75,65c-1.64,0-2.61,1.44-2.61,3.36s.86,3.23,2.57,3.23A2.39,2.39,0,0,0,319,69.66a2.56,2.56,0,0,0,.08-.69Z" transform="translate(0 -6.09)"/>
    <path class="cls-2" d="M330.71,59.84V70.38c0,.77,0,1.65.07,2.25h-1.42l-.07-1.52h0a3.2,3.2,0,0,1-3,1.71c-2.1,0-3.72-1.78-3.72-4.42,0-2.9,1.78-4.69,3.9-4.69a2.91,2.91,0,0,1,2.63,1.34h0V59.84Zm-1.58,7.62a3.05,3.05,0,0,0-.07-.67A2.33,2.33,0,0,0,326.77,65c-1.64,0-2.61,1.44-2.61,3.36s.86,3.23,2.57,3.23a2.4,2.4,0,0,0,2.33-1.89,3,3,0,0,0,.07-.69Z" transform="translate(0 -6.09)"/>
    <path class="cls-2" d="M345.69,72.23a7.76,7.76,0,0,1-3.21.58c-3.42,0-6-2.16-6-6.14a6,6,0,0,1,6.33-6.38,6.64,6.64,0,0,1,2.89.54l-.38,1.28a5.7,5.7,0,0,0-2.45-.5c-2.85,0-4.74,1.82-4.74,5,0,3,1.71,4.88,4.67,4.88a6.36,6.36,0,0,0,2.55-.5Z" transform="translate(0 -6.09)"/>
    <path class="cls-2" d="M347.28,59.84h1.58v5.44h0A3,3,0,0,1,350,64.16a3.28,3.28,0,0,1,1.62-.45c1.18,0,3.05.72,3.05,3.73v5.19h-1.59v-5c0-1.4-.52-2.59-2-2.59A2.28,2.28,0,0,0,349,66.61a1.94,1.94,0,0,0-.11.76v5.26h-1.58Z" transform="translate(0 -6.09)"/>
    <path class="cls-2" d="M361.88,72.63l-.13-1.1h-.05A3.27,3.27,0,0,1,359,72.82a2.48,2.48,0,0,1-2.66-2.5c0-2.1,1.87-3.26,5.24-3.24V66.9a1.8,1.8,0,0,0-2-2,4.37,4.37,0,0,0-2.27.65l-.36-1a5.38,5.38,0,0,1,2.86-.78c2.66,0,3.31,1.82,3.31,3.57v3.26a12.14,12.14,0,0,0,.15,2.09Zm-.24-4.45c-1.73,0-3.69.27-3.69,2a1.4,1.4,0,0,0,1.49,1.51,2.17,2.17,0,0,0,2.11-1.45,1.57,1.57,0,0,0,.09-.51Z" transform="translate(0 -6.09)"/>
    <path class="cls-2" d="M365.51,66.63c0-1,0-1.91-.08-2.72h1.39l.05,1.71H367a2.61,2.61,0,0,1,2.41-1.91,1.53,1.53,0,0,1,.45.06v1.49a2.76,2.76,0,0,0-.54-.05,2.21,2.21,0,0,0-2.12,2,4.09,4.09,0,0,0-.08.74v4.65h-1.56Z" transform="translate(0 -6.09)"/>
    <path class="cls-2" d="M373.65,61.41v2.5h2.27v1.21h-2.27v4.7c0,1.08.31,1.69,1.19,1.69a3.31,3.31,0,0,0,.92-.11l.07,1.19a3.8,3.8,0,0,1-1.41.22,2.22,2.22,0,0,1-1.71-.67,3.23,3.23,0,0,1-.61-2.27V65.12h-1.35V63.91h1.35V61.82Z" transform="translate(0 -6.09)"/>
    <path class="cls-2" d="M380.16,60.29a22,22,0,0,1-1.67,4.27l-1,.13a27.65,27.65,0,0,0,1.06-4.24Zm2.67,0a21.92,21.92,0,0,1-1.68,4.27l-1,.13a25.5,25.5,0,0,0,1.07-4.24Z" transform="translate(0 -6.09)"/>
    <path class="cls-2" d="M388.3,72.63c0-.6.07-1.48.07-2.25V59.84h1.57v5.48h0a3.24,3.24,0,0,1,3-1.61c2.16,0,3.69,1.8,3.68,4.45,0,3.12-2,4.66-3.91,4.66a3.11,3.11,0,0,1-2.92-1.63h-.05l-.07,1.44Zm1.64-3.5a2.71,2.71,0,0,0,.07.58,2.43,2.43,0,0,0,2.38,1.85c1.65,0,2.64-1.35,2.64-3.34,0-1.75-.9-3.25-2.59-3.25a2.52,2.52,0,0,0-2.41,2,2.83,2.83,0,0,0-.09.65Z" transform="translate(0 -6.09)"/>
    <path class="cls-2" d="M405.76,70.25c0,.9,0,1.69.08,2.38h-1.41l-.09-1.43h0a3.28,3.28,0,0,1-2.88,1.62c-1.37,0-3-.75-3-3.81v-5.1H400v4.83c0,1.65.51,2.77,1.95,2.77a2.22,2.22,0,0,0,2.23-2.25V63.91h1.58Z" transform="translate(0 -6.09)"/>
    <path class="cls-2" d="M410.13,61.41v2.5h2.27v1.21h-2.27v4.7c0,1.08.31,1.69,1.19,1.69a3.31,3.31,0,0,0,.92-.11l.07,1.19a3.8,3.8,0,0,1-1.41.22,2.22,2.22,0,0,1-1.71-.67,3.23,3.23,0,0,1-.61-2.27V65.12h-1.35V63.91h1.35V61.82Z" transform="translate(0 -6.09)"/>
    <path class="cls-2" d="M416.34,61.41v2.5h2.27v1.21h-2.27v4.7c0,1.08.3,1.69,1.19,1.69a3.18,3.18,0,0,0,.91-.11l.08,1.19a3.84,3.84,0,0,1-1.41.22,2.2,2.2,0,0,1-1.71-.67,3.23,3.23,0,0,1-.61-2.27V65.12h-1.35V63.91h1.35V61.82Z" transform="translate(0 -6.09)"/>
    <path class="cls-2" d="M427.93,68.2a4.25,4.25,0,0,1-4.34,4.62,4.13,4.13,0,0,1-4.17-4.48c0-2.92,1.9-4.63,4.32-4.63S427.93,65.53,427.93,68.2Zm-6.91.09c0,1.91,1.1,3.35,2.65,3.35s2.64-1.43,2.64-3.39c0-1.48-.74-3.35-2.61-3.35S421,66.63,421,68.29Z" transform="translate(0 -6.09)"/>
    <path class="cls-2" d="M429.79,66.27c0-.9,0-1.64-.07-2.36h1.4l.09,1.44h0a3.2,3.2,0,0,1,2.88-1.64c1.21,0,3.08.72,3.08,3.71v5.21h-1.59v-5c0-1.4-.52-2.57-2-2.57a2.25,2.25,0,0,0-2.13,1.62,2.35,2.35,0,0,0-.11.74v5.24h-1.58Z" transform="translate(0 -6.09)"/>
    <path class="cls-2" d="M443.52,72.63c0-.6.08-1.48.08-2.25V59.84h1.56v5.48h0a3.24,3.24,0,0,1,3-1.61c2.16,0,3.69,1.8,3.67,4.45,0,3.12-2,4.66-3.9,4.66A3.11,3.11,0,0,1,445,71.19H445l-.07,1.44Zm1.64-3.5a3.54,3.54,0,0,0,.07.58,2.45,2.45,0,0,0,2.38,1.85c1.66,0,2.65-1.35,2.65-3.34,0-1.75-.9-3.25-2.59-3.25a2.54,2.54,0,0,0-2.42,2,3.51,3.51,0,0,0-.09.65Z" transform="translate(0 -6.09)"/>
    <path class="cls-2" d="M454.7,68.56a2.78,2.78,0,0,0,3,3,5.78,5.78,0,0,0,2.41-.45l.27,1.14a7.09,7.09,0,0,1-2.9.54,4.06,4.06,0,0,1-4.29-4.4c0-2.63,1.55-4.7,4.09-4.7,2.85,0,3.6,2.51,3.6,4.11a5.82,5.82,0,0,1-.05.74Zm4.64-1.14a2.25,2.25,0,0,0-2.19-2.57,2.63,2.63,0,0,0-2.44,2.57Z" transform="translate(0 -6.09)"/>
    <path class="cls-2" d="M462.73,59.84h1.58V72.63h-1.58Z" transform="translate(0 -6.09)"/>
    <path class="cls-2" d="M474.73,68.2a4.26,4.26,0,0,1-4.34,4.62,4.14,4.14,0,0,1-4.18-4.48c0-2.92,1.91-4.63,4.32-4.63S474.73,65.53,474.73,68.2Zm-6.92.09c0,1.91,1.1,3.35,2.65,3.35s2.64-1.43,2.64-3.39c0-1.48-.73-3.35-2.61-3.35S467.81,66.63,467.81,68.29Z" transform="translate(0 -6.09)"/>
    <path class="cls-2" d="M477,63.91l1.15,4.43c.25,1,.49,1.87.65,2.77h.05c.2-.88.49-1.81.78-2.75l1.42-4.45h1.33l1.35,4.36c.33,1,.58,2,.78,2.84h0a24.63,24.63,0,0,1,.67-2.82l1.24-4.38h1.56l-2.8,8.72h-1.45l-1.33-4.16a29.48,29.48,0,0,1-.77-2.87h0a23.2,23.2,0,0,1-.79,2.88l-1.4,4.15H478l-2.63-8.72Z" transform="translate(0 -6.09)"/>
    <path class="cls-2" d="M488.44,71.69a1.08,1.08,0,1,1,1.07,1.13A1.06,1.06,0,0,1,488.44,71.69Z" transform="translate(0 -6.09)"/>
  </g>
  <g>
    <rect class="cls-3" x="13.18" y="29.56" width="12" height="40" transform="translate(-31.12 26.3) rotate(-50)"/>
    <rect class="cls-3" x="15.33" y="34.18" width="60" height="12" transform="translate(-14.58 42.98) rotate(-50)"/>
  </g>
</svg>
