<svg id="Layer_1" data-name="Layer 1" xmlns="http://www.w3.org/2000/svg" viewBox="0 0 69.35 75">
  <defs>
    <style>
      .cls-1 {
        fill: #00a651;
      }

      .cls-2 {
        fill: #231f20;
      }
    </style>
  </defs>
  <g>
    <path class="cls-1" d="M50,85A35,35,0,1,1,72.56,23.25l1.76,1.49,5-5V41.17H57.88l5.93-5.93-2.46-1.7a20,20,0,1,0,.92,32.26L72.92,76.46A34.78,34.78,0,0,1,50,85Z" transform="translate(-12.5 -12.5)"/>
    <path class="cls-2" d="M50,17.5a32.51,32.51,0,0,1,21,7.66l3.51,3,2.39-2.39V38.67H63.92l3.78-3.78-4.93-3.41A22.5,22.5,0,1,0,62,69.05l7.2,7.2A32.5,32.5,0,1,1,50,17.5m0-5a37.5,37.5,0,1,0,26.52,64L62.37,62.37a17.5,17.5,0,1,1-2.44-26.78l-8.08,8.08h30v-30l-7.67,7.67A37.38,37.38,0,0,0,50,12.5Z" transform="translate(-12.5 -12.5)"/>
  </g>
</svg>
