<svg id="Layer_1" data-name="Layer 1" xmlns="http://www.w3.org/2000/svg" viewBox="0 0 371.85 95.84">
  <defs>
    <style>
      .cls-1 {
        fill: #414042;
      }

      .cls-2 {
        fill: #58595b;
      }
    </style>
  </defs>
  <g>
    <path class="cls-1" d="M3.65,40.18V7.82H8.21L18.58,24.19A92.22,92.22,0,0,1,24.39,34.7l.09,0C24.1,30.34,24,26.4,24,21.36V7.82h3.94V40.18H23.71L13.44,23.76a103.85,103.85,0,0,1-6-10.8l-.14,0c.24,4.08.33,8,.33,13.34V40.18Z" transform="translate(-3.65 -6.09)"/>
    <path class="cls-1" d="M56.11,28.37c0,8.59-6,12.33-11.57,12.33-6.28,0-11.13-4.6-11.13-12,0-7.78,5.09-12.34,11.52-12.34C51.6,16.41,56.11,21.26,56.11,28.37Zm-18.43.24c0,5.09,2.93,8.93,7.06,8.93s7-3.8,7-9c0-3.94-2-8.93-7-8.93S37.68,24.19,37.68,28.61Z" transform="translate(-3.65 -6.09)"/>
    <path class="cls-1" d="M71,35.86a11.15,11.15,0,0,0,5.57,1.68c3.07,0,4.51-1.54,4.51-3.46S79.92,31,76.8,29.81c-4.18-1.49-6.14-3.79-6.14-6.58,0-3.74,3-6.82,8-6.82a11.66,11.66,0,0,1,5.71,1.44l-1,3.08a9,9,0,0,0-4.75-1.35c-2.5,0-3.89,1.44-3.89,3.17,0,1.92,1.39,2.79,4.41,3.94,4,1.53,6.1,3.55,6.1,7,0,4.08-3.17,7-8.69,7A13.29,13.29,0,0,1,70,39.07Z" transform="translate(-3.65 -6.09)"/>
    <path class="cls-1" d="M95.33,10.41a2.62,2.62,0,0,1-5.24,0,2.58,2.58,0,0,1,2.65-2.64A2.51,2.51,0,0,1,95.33,10.41ZM90.62,40.18V16.94h4.23V40.18Z" transform="translate(-3.65 -6.09)"/>
    <path class="cls-1" d="M101.85,23.23c0-2.4,0-4.37-.19-6.29h3.7l.19,3.75h.14a8,8,0,0,1,7.3-4.28,6.87,6.87,0,0,1,6.58,4.66h.09a9.53,9.53,0,0,1,2.6-3,7.88,7.88,0,0,1,5.13-1.64c3.07,0,7.64,2,7.64,10.09V40.18H130.9V27c0-4.46-1.64-7.15-5-7.15a5.48,5.48,0,0,0-5,3.84,7.08,7.08,0,0,0-.33,2.11V40.18H116.4V26.25c0-3.69-1.63-6.38-4.85-6.38a5.77,5.77,0,0,0-5.23,4.22,5.88,5.88,0,0,0-.34,2.07v14h-4.13Z" transform="translate(-3.65 -6.09)"/>
    <path class="cls-1" d="M161.33,33.84c0,2.4,0,4.51.19,6.34h-3.74l-.24-3.8h-.1a8.72,8.72,0,0,1-7.68,4.32c-3.65,0-8-2-8-10.17V16.94H146V29.81c0,4.41,1.34,7.39,5.18,7.39a5.93,5.93,0,0,0,5.95-6V16.94h4.23Z" transform="translate(-3.65 -6.09)"/>
    <path class="cls-1" d="M168.33,6.09h4.23V40.18h-4.23Z" transform="translate(-3.65 -6.09)"/>
    <path class="cls-1" d="M192.53,40.18l-.34-2.93h-.14a8.68,8.68,0,0,1-7.11,3.45c-4.7,0-7.1-3.31-7.1-6.67,0-5.61,5-8.69,14-8.64v-.48c0-1.92-.53-5.38-5.28-5.38a11.63,11.63,0,0,0-6.05,1.73l-1-2.78a14.39,14.39,0,0,1,7.63-2.07c7.11,0,8.83,4.85,8.83,9.51v8.69a32.58,32.58,0,0,0,.39,5.57Zm-.63-11.86c-4.61-.1-9.84.72-9.84,5.23a3.74,3.74,0,0,0,4,4,5.78,5.78,0,0,0,5.61-3.88,4.32,4.32,0,0,0,.24-1.35Z" transform="translate(-3.65 -6.09)"/>
    <path class="cls-1" d="M207.69,10.27v6.67h6.05v3.22h-6.05V32.69c0,2.88.82,4.51,3.17,4.51a9.12,9.12,0,0,0,2.45-.29l.19,3.17a10.2,10.2,0,0,1-3.74.58,5.86,5.86,0,0,1-4.56-1.78c-1.2-1.25-1.63-3.31-1.63-6.05V20.16H200V16.94h3.6V11.37Z" transform="translate(-3.65 -6.09)"/>
    <path class="cls-1" d="M223.2,10.41a2.62,2.62,0,0,1-5.23,0,2.58,2.58,0,0,1,2.64-2.64A2.51,2.51,0,0,1,223.2,10.41Zm-4.71,29.77V16.94h4.23V40.18Z" transform="translate(-3.65 -6.09)"/>
    <path class="cls-1" d="M250.75,28.37c0,8.59-5.95,12.33-11.57,12.33-6.29,0-11.13-4.6-11.13-12,0-7.78,5.08-12.34,11.52-12.34C246.24,16.41,250.75,21.26,250.75,28.37Zm-18.43.24c0,5.09,2.93,8.93,7.06,8.93s7.05-3.8,7.05-9c0-3.94-2-8.93-7-8.93S232.32,24.19,232.32,28.61Z" transform="translate(-3.65 -6.09)"/>
    <path class="cls-1" d="M256.08,23.23c0-2.4-.05-4.37-.19-6.29h3.74l.24,3.84h.1a8.54,8.54,0,0,1,7.68-4.37c3.21,0,8.21,1.92,8.21,9.89V40.18h-4.23V26.78c0-3.74-1.39-6.86-5.38-6.86a6,6,0,0,0-5.66,4.32,6.15,6.15,0,0,0-.29,2v14h-4.22Z" transform="translate(-3.65 -6.09)"/>
    <path class="cls-1" d="M313,6.09V34.18c0,2.06.05,4.41.19,6h-3.79l-.19-4h-.1a8.59,8.59,0,0,1-7.92,4.56c-5.62,0-9.94-4.75-9.94-11.8,0-7.73,4.75-12.49,10.42-12.49,3.55,0,5.95,1.68,7,3.56h.09V6.09ZM308.73,26.4a7.19,7.19,0,0,0-.19-1.78,6.2,6.2,0,0,0-6.09-4.89c-4.37,0-7,3.84-7,9,0,4.71,2.3,8.6,6.86,8.6a6.36,6.36,0,0,0,6.19-5,7.14,7.14,0,0,0,.19-1.83Z" transform="translate(-3.65 -6.09)"/>
    <path class="cls-1" d="M332.83,40.18l-.34-2.93h-.14a8.66,8.66,0,0,1-7.1,3.45c-4.71,0-7.11-3.31-7.11-6.67,0-5.61,5-8.69,14-8.64v-.48c0-1.92-.53-5.38-5.28-5.38a11.63,11.63,0,0,0-6.05,1.73l-1-2.78a14.39,14.39,0,0,1,7.63-2.07c7.11,0,8.84,4.85,8.84,9.51v8.69a32.65,32.65,0,0,0,.38,5.57Zm-.62-11.86c-4.61-.1-9.85.72-9.85,5.23a3.74,3.74,0,0,0,4,4A5.78,5.78,0,0,0,332,33.7a4.34,4.34,0,0,0,.25-1.35Z" transform="translate(-3.65 -6.09)"/>
    <path class="cls-1" d="M348,10.27v6.67h6.05v3.22H348V32.69c0,2.88.81,4.51,3.17,4.51a9,9,0,0,0,2.44-.29l.2,3.17a10.3,10.3,0,0,1-3.75.58,5.86,5.86,0,0,1-4.56-1.78c-1.2-1.25-1.63-3.31-1.63-6.05V20.16h-3.6V16.94h3.6V11.37Z" transform="translate(-3.65 -6.09)"/>
    <path class="cls-1" d="M371.66,40.18l-.33-2.93h-.15a8.66,8.66,0,0,1-7.1,3.45c-4.71,0-7.11-3.31-7.11-6.67,0-5.61,5-8.69,14-8.64v-.48c0-1.92-.53-5.38-5.28-5.38a11.63,11.63,0,0,0-6.05,1.73l-1-2.78a14.43,14.43,0,0,1,7.64-2.07c7.1,0,8.83,4.85,8.83,9.51v8.69a32.65,32.65,0,0,0,.38,5.57ZM371,28.32c-4.61-.1-9.84.72-9.84,5.23a3.73,3.73,0,0,0,4,4,5.79,5.79,0,0,0,5.62-3.88,4.63,4.63,0,0,0,.24-1.35Z" transform="translate(-3.65 -6.09)"/>
  </g>
  <g>
    <path class="cls-2" d="M9.59,64.6a16.61,16.61,0,0,1,3-.25,4.91,4.91,0,0,1,3.51,1,3,3,0,0,1,1,2.3,3.19,3.19,0,0,1-2.29,3.1v.05a3,3,0,0,1,1.78,2.45,19.89,19.89,0,0,0,.94,3.33H15.88a15.18,15.18,0,0,1-.81-2.9c-.36-1.67-1-2.3-2.43-2.36H11.16v5.26H9.59Zm1.57,5.53h1.6c1.68,0,2.74-.92,2.74-2.31,0-1.57-1.13-2.25-2.79-2.27a5.94,5.94,0,0,0-1.55.15Z" transform="translate(-3.65 -6.09)"/>
    <path class="cls-2" d="M26.52,74.19c0,.91,0,1.7.07,2.38H25.18l-.09-1.42h0a3.29,3.29,0,0,1-2.88,1.62c-1.37,0-3-.76-3-3.82V67.86h1.58v4.82c0,1.66.51,2.78,1.95,2.78A2.3,2.3,0,0,0,24.79,74a2.39,2.39,0,0,0,.14-.82V67.86h1.59Z" transform="translate(-3.65 -6.09)"/>
    <path class="cls-2" d="M29.14,70.22c0-.9,0-1.64-.07-2.36h1.41l.09,1.44h0a3.2,3.2,0,0,1,2.88-1.64c1.21,0,3.08.72,3.08,3.71v5.2H35v-5c0-1.41-.53-2.58-2-2.58a2.27,2.27,0,0,0-2.13,1.62,2.37,2.37,0,0,0-.1.74v5.24H29.14Z" transform="translate(-3.65 -6.09)"/>
    <path class="cls-2" d="M42.73,75a4.13,4.13,0,0,0,2.09.63c1.15,0,1.69-.57,1.69-1.3s-.45-1.17-1.62-1.6c-1.56-.56-2.3-1.42-2.3-2.46,0-1.41,1.13-2.56,3-2.56a4.35,4.35,0,0,1,2.15.54l-.4,1.15a3.44,3.44,0,0,0-1.78-.5c-.94,0-1.46.54-1.46,1.19s.52,1,1.66,1.47c1.51.58,2.28,1.33,2.28,2.63,0,1.53-1.18,2.61-3.25,2.61a5,5,0,0,1-2.45-.59Z" transform="translate(-3.65 -6.09)"/>
    <path class="cls-2" d="M51.84,65.41a1,1,0,0,1-2,0,1,1,0,0,1,1-1A.94.94,0,0,1,51.84,65.41ZM50.08,76.57V67.86h1.58v8.71Z" transform="translate(-3.65 -6.09)"/>
    <path class="cls-2" d="M54.29,70.22c0-.9,0-1.64-.07-2.36H55.6l.07,1.4h.06a3,3,0,0,1,2.74-1.6,2.58,2.58,0,0,1,2.46,1.75h0a3.57,3.57,0,0,1,1-1.14,3,3,0,0,1,1.93-.61c1.15,0,2.86.76,2.86,3.78v5.13H65.18V71.64c0-1.68-.61-2.68-1.89-2.68a2,2,0,0,0-1.87,1.44,2.61,2.61,0,0,0-.13.79v5.38H59.74V71.35c0-1.39-.61-2.39-1.81-2.39a2.33,2.33,0,0,0-2.09,2.35v5.26H54.29Z" transform="translate(-3.65 -6.09)"/>
    <path class="cls-2" d="M76.59,74.19c0,.91,0,1.7.07,2.38h-1.4l-.09-1.42h0a3.27,3.27,0,0,1-2.88,1.62c-1.37,0-3-.76-3-3.82V67.86h1.58v4.82c0,1.66.5,2.78,2,2.78A2.27,2.27,0,0,0,74.86,74,2.39,2.39,0,0,0,75,73.2V67.86h1.58Z" transform="translate(-3.65 -6.09)"/>
    <path class="cls-2" d="M79.22,63.79H80.8V76.57H79.22Z" transform="translate(-3.65 -6.09)"/>
    <path class="cls-2" d="M88.29,76.57l-.12-1.1h-.06a3.23,3.23,0,0,1-2.66,1.3,2.48,2.48,0,0,1-2.67-2.5C82.78,72.16,84.65,71,88,71v-.18a1.8,1.8,0,0,0-2-2,4.31,4.31,0,0,0-2.27.65l-.36-1a5.49,5.49,0,0,1,2.86-.77c2.67,0,3.32,1.82,3.32,3.56v3.26a12.06,12.06,0,0,0,.14,2.09Zm-.23-4.45c-1.73,0-3.69.27-3.69,2a1.4,1.4,0,0,0,1.49,1.51A2.17,2.17,0,0,0,88,74.14a1.76,1.76,0,0,0,.09-.5Z" transform="translate(-3.65 -6.09)"/>
    <path class="cls-2" d="M94,65.35v2.51h2.27v1.2H94v4.7c0,1.08.3,1.7,1.19,1.7a3.59,3.59,0,0,0,.91-.11l.08,1.19a4.1,4.1,0,0,1-1.41.21A2.2,2.2,0,0,1,93,76.09a3.25,3.25,0,0,1-.61-2.27V69.06H91.08v-1.2h1.35V65.77Z" transform="translate(-3.65 -6.09)"/>
    <path class="cls-2" d="M99.79,65.41a1,1,0,0,1-2,0,1,1,0,0,1,1-1A.94.94,0,0,1,99.79,65.41ZM98,76.57V67.86h1.58v8.71Z" transform="translate(-3.65 -6.09)"/>
    <path class="cls-2" d="M110.13,72.14a4.26,4.26,0,0,1-4.34,4.63,4.14,4.14,0,0,1-4.18-4.48c0-2.92,1.91-4.63,4.32-4.63A4.13,4.13,0,0,1,110.13,72.14Zm-6.92.09c0,1.91,1.1,3.35,2.65,3.35s2.64-1.42,2.64-3.38c0-1.48-.73-3.35-2.61-3.35S103.21,70.58,103.21,72.23Z" transform="translate(-3.65 -6.09)"/>
    <path class="cls-2" d="M112.12,70.22c0-.9,0-1.64-.07-2.36h1.4l.09,1.44h0a3.2,3.2,0,0,1,2.88-1.64c1.21,0,3.08.72,3.08,3.71v5.2H118v-5c0-1.41-.53-2.58-2-2.58a2.25,2.25,0,0,0-2.13,1.62,2.37,2.37,0,0,0-.1.74v5.24h-1.59Z" transform="translate(-3.65 -6.09)"/>
    <path class="cls-2" d="M126.09,76.57V69.06h-1.23v-1.2h1.23v-.42a4.1,4.1,0,0,1,1-3,3,3,0,0,1,2.12-.81,3.77,3.77,0,0,1,1.35.25l-.21,1.23a2.36,2.36,0,0,0-1-.2c-1.35,0-1.69,1.19-1.69,2.52v.47h2.1v1.2h-2.1v7.51Z" transform="translate(-3.65 -6.09)"/>
    <path class="cls-2" d="M131.18,70.58c0-1,0-1.91-.07-2.72h1.39l.05,1.71h.07A2.62,2.62,0,0,1,135,67.66a2.06,2.06,0,0,1,.45,0v1.5a2.17,2.17,0,0,0-2.67,2,5.17,5.17,0,0,0-.07.74v4.64h-1.57Z" transform="translate(-3.65 -6.09)"/>
    <path class="cls-2" d="M144.78,72.14a4.26,4.26,0,0,1-4.34,4.63,4.14,4.14,0,0,1-4.18-4.48c0-2.92,1.91-4.63,4.32-4.63A4.13,4.13,0,0,1,144.78,72.14Zm-6.92.09c0,1.91,1.1,3.35,2.65,3.35s2.64-1.42,2.64-3.38c0-1.48-.73-3.35-2.61-3.35S137.86,70.58,137.86,72.23Z" transform="translate(-3.65 -6.09)"/>
    <path class="cls-2" d="M146.77,70.22c0-.9,0-1.64-.07-2.36h1.38l.08,1.4h.05a3,3,0,0,1,2.74-1.6,2.58,2.58,0,0,1,2.47,1.75h0a3.57,3.57,0,0,1,1-1.14,3,3,0,0,1,1.93-.61c1.15,0,2.86.76,2.86,3.78v5.13h-1.55V71.64c0-1.68-.61-2.68-1.89-2.68a2,2,0,0,0-1.87,1.44,2.61,2.61,0,0,0-.13.79v5.38h-1.54V71.35c0-1.39-.62-2.39-1.82-2.39a2.37,2.37,0,0,0-2.09,2.35v5.26h-1.55Z" transform="translate(-3.65 -6.09)"/>
    <path class="cls-2" d="M167.51,65.35v2.51h2.27v1.2h-2.27v4.7c0,1.08.3,1.7,1.19,1.7a3.59,3.59,0,0,0,.91-.11l.08,1.19a4.1,4.1,0,0,1-1.41.21,2.2,2.2,0,0,1-1.71-.66,3.25,3.25,0,0,1-.61-2.27V69.06h-1.35v-1.2H166V65.77Z" transform="translate(-3.65 -6.09)"/>
    <path class="cls-2" d="M171.56,63.79h1.58v5.44h0a3,3,0,0,1,1.13-1.12,3.28,3.28,0,0,1,1.62-.45c1.17,0,3,.72,3,3.73v5.18h-1.58v-5c0-1.41-.52-2.6-2-2.6a2.28,2.28,0,0,0-2.12,1.59,1.88,1.88,0,0,0-.11.75v5.26h-1.58Z" transform="translate(-3.65 -6.09)"/>
    <path class="cls-2" d="M182.43,72.5a2.79,2.79,0,0,0,3,3,5.75,5.75,0,0,0,2.41-.45l.27,1.13a7.09,7.09,0,0,1-2.9.54,4,4,0,0,1-4.28-4.39c0-2.63,1.54-4.7,4.08-4.7,2.85,0,3.6,2.5,3.6,4.1a5.67,5.67,0,0,1,0,.74Zm4.64-1.13a2.25,2.25,0,0,0-2.19-2.58,2.63,2.63,0,0,0-2.43,2.58Z" transform="translate(-3.65 -6.09)"/>
    <path class="cls-2" d="M196.29,65.35v2.51h2.27v1.2h-2.27v4.7c0,1.08.3,1.7,1.19,1.7a3.75,3.75,0,0,0,.92-.11l.07,1.19a4.1,4.1,0,0,1-1.41.21,2.2,2.2,0,0,1-1.71-.66,3.25,3.25,0,0,1-.61-2.27V69.06h-1.35v-1.2h1.35V65.77Z" transform="translate(-3.65 -6.09)"/>
    <path class="cls-2" d="M208.12,72.14a4.26,4.26,0,0,1-4.34,4.63,4.14,4.14,0,0,1-4.18-4.48c0-2.92,1.91-4.63,4.32-4.63A4.13,4.13,0,0,1,208.12,72.14Zm-6.92.09c0,1.91,1.1,3.35,2.65,3.35s2.65-1.42,2.65-3.38c0-1.48-.74-3.35-2.62-3.35S201.2,70.58,201.2,72.23Z" transform="translate(-3.65 -6.09)"/>
    <path class="cls-2" d="M210.11,70.7c0-1.11,0-2-.07-2.84h1.42l.07,1.49h0a3.44,3.44,0,0,1,3.1-1.69c2.1,0,3.69,1.78,3.69,4.43,0,3.13-1.91,4.68-4,4.68a3.07,3.07,0,0,1-2.69-1.37h0v4.74h-1.57ZM211.68,73a3.16,3.16,0,0,0,.07.65,2.45,2.45,0,0,0,2.38,1.86c1.67,0,2.64-1.37,2.64-3.37,0-1.75-.91-3.24-2.59-3.24a2.51,2.51,0,0,0-2.39,2,2.33,2.33,0,0,0-.11.65Z" transform="translate(-3.65 -6.09)"/>
    <path class="cls-2" d="M224.17,70.22c0-.9,0-1.64-.07-2.36h1.38l.08,1.4h.05a3,3,0,0,1,2.74-1.6,2.56,2.56,0,0,1,2.46,1.75h0a3.57,3.57,0,0,1,1-1.14,3,3,0,0,1,1.93-.61c1.15,0,2.86.76,2.86,3.78v5.13h-1.55V71.64c0-1.68-.61-2.68-1.89-2.68a2,2,0,0,0-1.87,1.44,2.61,2.61,0,0,0-.13.79v5.38h-1.55V71.35c0-1.39-.61-2.39-1.81-2.39a2.18,2.18,0,0,0-2,1.58,2.15,2.15,0,0,0-.12.77v5.26h-1.55Z" transform="translate(-3.65 -6.09)"/>
    <path class="cls-2" d="M240.06,72.5a2.8,2.8,0,0,0,3,3,5.8,5.8,0,0,0,2.42-.45l.27,1.13a7.13,7.13,0,0,1-2.9.54,4,4,0,0,1-4.29-4.39c0-2.63,1.55-4.7,4.09-4.7,2.84,0,3.6,2.5,3.6,4.1,0,.33,0,.58-.05.74Zm4.65-1.13a2.26,2.26,0,0,0-2.2-2.58,2.63,2.63,0,0,0-2.43,2.58Z" transform="translate(-3.65 -6.09)"/>
    <path class="cls-2" d="M248.2,70.22c0-.9,0-1.64-.07-2.36h1.4l.09,1.44h0a3.2,3.2,0,0,1,2.88-1.64c1.21,0,3.08.72,3.08,3.71v5.2H254v-5c0-1.41-.52-2.58-2-2.58a2.25,2.25,0,0,0-2.13,1.62,2.35,2.35,0,0,0-.11.74v5.24H248.2Z" transform="translate(-3.65 -6.09)"/>
    <path class="cls-2" d="M265.48,74.19c0,.91,0,1.7.07,2.38h-1.4l-.09-1.42h0a3.27,3.27,0,0,1-2.88,1.62c-1.37,0-3-.76-3-3.82V67.86h1.58v4.82c0,1.66.5,2.78,1.94,2.78A2.29,2.29,0,0,0,263.75,74a2.39,2.39,0,0,0,.15-.82V67.86h1.58Z" transform="translate(-3.65 -6.09)"/>
    <path class="cls-2" d="M279.81,72.14a4.26,4.26,0,0,1-4.34,4.63,4.14,4.14,0,0,1-4.18-4.48c0-2.92,1.91-4.63,4.32-4.63S279.81,69.48,279.81,72.14Zm-6.91.09c0,1.91,1.09,3.35,2.64,3.35s2.65-1.42,2.65-3.38c0-1.48-.74-3.35-2.61-3.35S272.9,70.58,272.9,72.23Z" transform="translate(-3.65 -6.09)"/>
    <path class="cls-2" d="M281.8,70.58c0-1,0-1.91-.07-2.72h1.39l.05,1.71h.08a2.61,2.61,0,0,1,2.41-1.91,2.06,2.06,0,0,1,.45,0v1.5a2.17,2.17,0,0,0-.54-.06,2.23,2.23,0,0,0-2.13,2,5.17,5.17,0,0,0-.07.74v4.64H281.8Z" transform="translate(-3.65 -6.09)"/>
    <path class="cls-2" d="M291.43,76.57c0-.59.08-1.47.08-2.25V63.79h1.56v5.47h0a3.25,3.25,0,0,1,3-1.6c2.16,0,3.69,1.8,3.67,4.45,0,3.11-2,4.66-3.9,4.66a3.12,3.12,0,0,1-2.92-1.64h-.05l-.08,1.44Zm1.64-3.49a2.53,2.53,0,0,0,.08.57,2.44,2.44,0,0,0,2.37,1.86c1.66,0,2.65-1.35,2.65-3.35,0-1.75-.9-3.24-2.59-3.24a2.54,2.54,0,0,0-2.42,1.94,3.64,3.64,0,0,0-.09.65Z" transform="translate(-3.65 -6.09)"/>
    <path class="cls-2" d="M302.2,67.86,304.11,73c.19.57.41,1.26.56,1.78h0c.16-.52.34-1.19.56-1.82L307,67.86h1.67l-2.37,6.21c-1.14,3-1.91,4.52-3,5.45a4.25,4.25,0,0,1-1.95,1L301,79.22a4.28,4.28,0,0,0,1.38-.78,4.79,4.79,0,0,0,1.33-1.76,1,1,0,0,0,.13-.38,1.47,1.47,0,0,0-.11-.41l-3.22-8Z" transform="translate(-3.65 -6.09)"/>
    <path class="cls-2" d="M320.13,76.25a6,6,0,0,1-2.51.5,4.14,4.14,0,0,1-4.33-4.45A4.42,4.42,0,0,1,318,67.68a5.21,5.21,0,0,1,2.19.45l-.36,1.22a3.71,3.71,0,0,0-1.83-.41,3.28,3.28,0,0,0-.06,6.55,4.5,4.5,0,0,0,1.95-.43Z" transform="translate(-3.65 -6.09)"/>
    <path class="cls-2" d="M322,63.79h1.58V76.57H322Z" transform="translate(-3.65 -6.09)"/>
    <path class="cls-2" d="M328,65.41a.93.93,0,0,1-1,1,.94.94,0,0,1-1-1,1,1,0,0,1,1-1A.93.93,0,0,1,328,65.41Zm-1.76,11.16V67.86h1.58v8.71Z" transform="translate(-3.65 -6.09)"/>
    <path class="cls-2" d="M336.65,76.25a5.91,5.91,0,0,1-2.5.5,4.14,4.14,0,0,1-4.34-4.45,4.43,4.43,0,0,1,4.68-4.62,5.27,5.27,0,0,1,2.2.45l-.36,1.22a3.78,3.78,0,0,0-1.84-.41,3.28,3.28,0,0,0-.05,6.55,4.45,4.45,0,0,0,1.94-.43Z" transform="translate(-3.65 -6.09)"/>
    <path class="cls-2" d="M340.07,71.85h0c.21-.3.52-.68.77-1l2.56-3h1.91L342,71.44l3.83,5.13h-1.92l-3-4.18-.81.9v3.28H338.5V63.79h1.57Z" transform="translate(-3.65 -6.09)"/>
    <path class="cls-2" d="M349,65.41a1,1,0,0,1-2,0,1,1,0,0,1,1-1A.94.94,0,0,1,349,65.41Zm-1.77,11.16V67.86h1.59v8.71Z" transform="translate(-3.65 -6.09)"/>
    <path class="cls-2" d="M351.46,70.22c0-.9,0-1.64-.07-2.36h1.41l.09,1.44h0a3.2,3.2,0,0,1,2.88-1.64c1.21,0,3.08.72,3.08,3.71v5.2H357.3v-5c0-1.41-.52-2.58-2-2.58a2.25,2.25,0,0,0-2.12,1.62,2.1,2.1,0,0,0-.11.74v5.24h-1.59Z" transform="translate(-3.65 -6.09)"/>
    <path class="cls-2" d="M369,67.86c0,.63-.07,1.33-.07,2.39v5.06c0,2-.4,3.22-1.24,4a4.63,4.63,0,0,1-3.17,1,5.59,5.59,0,0,1-2.9-.72l.4-1.2a4.87,4.87,0,0,0,2.55.68c1.62,0,2.81-.84,2.81-3v-1h0a3.1,3.1,0,0,1-2.77,1.46c-2.16,0-3.71-1.84-3.71-4.25,0-3,1.93-4.63,3.93-4.63a2.9,2.9,0,0,1,2.72,1.51h0l.08-1.31Zm-1.64,3.44a2.32,2.32,0,0,0-2.3-2.4c-1.51,0-2.59,1.28-2.59,3.3,0,1.71.86,3.13,2.57,3.13a2.33,2.33,0,0,0,2.2-1.62,2.77,2.77,0,0,0,.12-.85Z" transform="translate(-3.65 -6.09)"/>
    <path class="cls-2" d="M25.43,90.23A20.75,20.75,0,0,1,27.13,86l1-.11a25.89,25.89,0,0,0-1.06,4.21Zm2.69,0A20.88,20.88,0,0,1,29.79,86l1-.11a24.9,24.9,0,0,0-1.06,4.21Z" transform="translate(-3.65 -6.09)"/>
    <path class="cls-2" d="M32.56,86.2a16.53,16.53,0,0,1,3-.25,5,5,0,0,1,3.51,1,3,3,0,0,1,1,2.3,3.18,3.18,0,0,1-2.28,3.1v0a3,3,0,0,1,1.78,2.45,18.93,18.93,0,0,0,.94,3.33H38.85a15.42,15.42,0,0,1-.81-2.9c-.36-1.67-1-2.3-2.44-2.36H34.13v5.26H32.56Zm1.57,5.53h1.6c1.68,0,2.74-.92,2.74-2.31,0-1.57-1.14-2.25-2.79-2.27a5.94,5.94,0,0,0-1.55.15Z" transform="translate(-3.65 -6.09)"/>
    <path class="cls-2" d="M49.48,95.79c0,.9,0,1.7.08,2.38H48.15l-.09-1.42h0a3.31,3.31,0,0,1-2.89,1.62c-1.36,0-3-.76-3-3.82V89.46h1.58v4.82c0,1.66.51,2.78,2,2.78A2.23,2.23,0,0,0,47.9,94.8V89.46h1.58Z" transform="translate(-3.65 -6.09)"/>
    <path class="cls-2" d="M52.11,91.82c0-.9,0-1.64-.07-2.36h1.4l.09,1.44h0a3.2,3.2,0,0,1,2.88-1.64c1.21,0,3.08.72,3.08,3.71v5.2H57.94v-5c0-1.41-.52-2.58-2-2.58a2.25,2.25,0,0,0-2.13,1.62,2.35,2.35,0,0,0-.11.74v5.24H52.11Z" transform="translate(-3.65 -6.09)"/>
    <path class="cls-2" d="M65.75,96.26a5.6,5.6,0,0,0,2.81.8c1.61,0,2.54-.85,2.54-2.08s-.65-1.78-2.29-2.41c-2-.7-3.2-1.73-3.2-3.44,0-1.89,1.57-3.29,3.93-3.29a5.59,5.59,0,0,1,2.68.59l-.43,1.28a4.81,4.81,0,0,0-2.31-.58c-1.66,0-2.29,1-2.29,1.82,0,1.14.74,1.7,2.42,2.34,2,.8,3.09,1.79,3.09,3.57s-1.38,3.49-4.25,3.49a6.27,6.27,0,0,1-3.09-.77Z" transform="translate(-3.65 -6.09)"/>
    <path class="cls-2" d="M76.55,87a.93.93,0,0,1-1,1,.94.94,0,0,1-1-1,1,1,0,0,1,1-1A.93.93,0,0,1,76.55,87ZM74.79,98.17V89.46h1.58v8.71Z" transform="translate(-3.65 -6.09)"/>
    <path class="cls-2" d="M79,91.82c0-.9,0-1.64-.07-2.36h1.39l.07,1.4h0a3,3,0,0,1,2.74-1.6A2.58,2.58,0,0,1,85.65,91h0a3.57,3.57,0,0,1,1-1.14,3,3,0,0,1,1.93-.61c1.15,0,2.86.76,2.86,3.78v5.13H89.89V93.24c0-1.68-.61-2.68-1.89-2.68A2,2,0,0,0,86.13,92a2.62,2.62,0,0,0-.12.79v5.38H84.46V93c0-1.39-.62-2.39-1.82-2.39a2.37,2.37,0,0,0-2.09,2.35v5.26H79Z" transform="translate(-3.65 -6.09)"/>
    <path class="cls-2" d="M101.31,95.79c0,.9,0,1.7.07,2.38H100l-.09-1.42h0A3.3,3.3,0,0,1,97,98.37c-1.37,0-3-.76-3-3.82V89.46h1.58v4.82c0,1.66.51,2.78,1.95,2.78a2.23,2.23,0,0,0,2.23-2.26V89.46h1.59Z" transform="translate(-3.65 -6.09)"/>
    <path class="cls-2" d="M103.93,85.39h1.59V98.17h-1.59Z" transform="translate(-3.65 -6.09)"/>
    <path class="cls-2" d="M113,98.17l-.12-1.1h0a3.25,3.25,0,0,1-2.67,1.3,2.48,2.48,0,0,1-2.66-2.5c0-2.11,1.87-3.26,5.23-3.24v-.18a1.79,1.79,0,0,0-2-2,4.27,4.27,0,0,0-2.26.65l-.37-1a5.44,5.44,0,0,1,2.87-.77c2.66,0,3.31,1.82,3.31,3.56v3.26a12,12,0,0,0,.15,2.09Zm-.23-4.45c-1.73,0-3.69.27-3.69,2a1.4,1.4,0,0,0,1.49,1.51,2.16,2.16,0,0,0,2.11-1.46,1.76,1.76,0,0,0,.09-.5Z" transform="translate(-3.65 -6.09)"/>
    <path class="cls-2" d="M118.69,87v2.51H121v1.2h-2.27v4.7c0,1.08.31,1.7,1.19,1.7a3.75,3.75,0,0,0,.92-.11l.07,1.19a4,4,0,0,1-1.4.21,2.18,2.18,0,0,1-1.71-.66,3.25,3.25,0,0,1-.62-2.27V90.66h-1.35v-1.2h1.35V87.37Z" transform="translate(-3.65 -6.09)"/>
    <path class="cls-2" d="M124.51,87a1,1,0,0,1-2,0,1,1,0,0,1,1-1A.94.94,0,0,1,124.51,87Zm-1.77,11.16V89.46h1.59v8.71Z" transform="translate(-3.65 -6.09)"/>
    <path class="cls-2" d="M134.84,93.74a4.26,4.26,0,0,1-4.34,4.63,4.14,4.14,0,0,1-4.18-4.48c0-2.92,1.91-4.63,4.32-4.63S134.84,91.08,134.84,93.74Zm-6.92.09c0,1.91,1.1,3.35,2.65,3.35s2.65-1.42,2.65-3.38c0-1.48-.74-3.35-2.61-3.35S127.92,92.18,127.92,93.83Z" transform="translate(-3.65 -6.09)"/>
    <path class="cls-2" d="M136.83,91.82c0-.9,0-1.64-.07-2.36h1.41l.09,1.44h0a3.21,3.21,0,0,1,2.88-1.64c1.21,0,3.08.72,3.08,3.71v5.2h-1.58v-5c0-1.41-.52-2.58-2-2.58a2.25,2.25,0,0,0-2.12,1.62,2.35,2.35,0,0,0-.11.74v5.24h-1.59Z" transform="translate(-3.65 -6.09)"/>
    <path class="cls-2" d="M148.21,85.84a21.85,21.85,0,0,1-1.67,4.26l-1,.13A27.23,27.23,0,0,0,146.59,86Zm2.67,0a21.8,21.8,0,0,1-1.68,4.26l-1,.13A25.13,25.13,0,0,0,149.26,86Z" transform="translate(-3.65 -6.09)"/>
    <path class="cls-2" d="M156.64,87a1,1,0,0,1-2,0,1,1,0,0,1,1-1A.94.94,0,0,1,156.64,87Zm-1.77,11.16V89.46h1.59v8.71Z" transform="translate(-3.65 -6.09)"/>
    <path class="cls-2" d="M159.08,91.82c0-.9,0-1.64-.07-2.36h1.41l.08,1.44h0a3.2,3.2,0,0,1,2.88-1.64c1.21,0,3.08.72,3.08,3.71v5.2h-1.58v-5c0-1.41-.53-2.58-2-2.58a2.24,2.24,0,0,0-2.12,1.62,2.1,2.1,0,0,0-.11.74v5.24h-1.59Z" transform="translate(-3.65 -6.09)"/>
    <path class="cls-2" d="M174.8,87v2.51h2.27v1.2H174.8v4.7c0,1.08.3,1.7,1.19,1.7a3.59,3.59,0,0,0,.91-.11l.08,1.19a4.1,4.1,0,0,1-1.41.21,2.2,2.2,0,0,1-1.71-.66,3.25,3.25,0,0,1-.61-2.27V90.66H171.9v-1.2h1.35V87.37Z" transform="translate(-3.65 -6.09)"/>
    <path class="cls-2" d="M178.85,85.39h1.58v5.44h0a2.9,2.9,0,0,1,1.13-1.12,3.28,3.28,0,0,1,1.62-.45c1.17,0,3,.72,3,3.73v5.18h-1.58v-5c0-1.41-.52-2.6-2-2.6a2.28,2.28,0,0,0-2.12,1.59,1.88,1.88,0,0,0-.11.75v5.26h-1.58Z" transform="translate(-3.65 -6.09)"/>
    <path class="cls-2" d="M189.72,94.1a2.79,2.79,0,0,0,3,3,5.75,5.75,0,0,0,2.41-.45l.27,1.13a7.09,7.09,0,0,1-2.9.54A4,4,0,0,1,188.21,94c0-2.63,1.54-4.7,4.08-4.7,2.85,0,3.6,2.5,3.6,4.1a5.67,5.67,0,0,1,0,.74ZM194.36,93a2.25,2.25,0,0,0-2.19-2.58A2.62,2.62,0,0,0,189.74,93Z" transform="translate(-3.65 -6.09)"/>
    <path class="cls-2" d="M207.88,97.85a5.91,5.91,0,0,1-2.5.5A4.14,4.14,0,0,1,201,93.9a4.43,4.43,0,0,1,4.68-4.62,5.23,5.23,0,0,1,2.2.45L207.56,91a3.67,3.67,0,0,0-1.84-.41,3.28,3.28,0,0,0-.05,6.55,4.45,4.45,0,0,0,1.94-.43Z" transform="translate(-3.65 -6.09)"/>
    <path class="cls-2" d="M217.51,93.74a4.26,4.26,0,0,1-4.34,4.63A4.14,4.14,0,0,1,209,93.89c0-2.92,1.9-4.63,4.32-4.63S217.51,91.08,217.51,93.74Zm-6.91.09c0,1.91,1.1,3.35,2.65,3.35s2.64-1.42,2.64-3.38c0-1.48-.74-3.35-2.61-3.35S210.6,92.18,210.6,93.83Z" transform="translate(-3.65 -6.09)"/>
    <path class="cls-2" d="M219.51,91.82c0-.9,0-1.64-.07-2.36h1.4l.09,1.44h0a3.2,3.2,0,0,1,2.88-1.64c1.2,0,3.08.72,3.08,3.71v5.2h-1.59v-5c0-1.41-.52-2.58-2-2.58a2.25,2.25,0,0,0-2.12,1.62,2.35,2.35,0,0,0-.11.74v5.24h-1.58Z" transform="translate(-3.65 -6.09)"/>
    <path class="cls-2" d="M229.66,98.17V90.66h-1.23v-1.2h1.23V89a3.49,3.49,0,0,1,3.8-3.8,4.28,4.28,0,0,1,2.21.58l-.45,1.2a3.32,3.32,0,0,0-1.83-.5c-1.68,0-2.16,1.17-2.16,2.55v.44h5.06v8.71h-1.57V90.66h-3.49v7.51Z" transform="translate(-3.65 -6.09)"/>
    <path class="cls-2" d="M246.42,89.46c0,.63-.07,1.33-.07,2.39v5.06c0,2-.4,3.22-1.24,4a4.65,4.65,0,0,1-3.17,1,5.59,5.59,0,0,1-2.9-.72l.39-1.2a4.94,4.94,0,0,0,2.56.68c1.62,0,2.81-.84,2.81-3v-1h0A3.1,3.1,0,0,1,242,98.14c-2.16,0-3.71-1.84-3.71-4.25,0-3,1.93-4.63,3.93-4.63a2.88,2.88,0,0,1,2.71,1.51h0l.07-1.31Zm-1.64,3.44a2.32,2.32,0,0,0-2.3-2.4c-1.52,0-2.6,1.28-2.6,3.3,0,1.71.87,3.13,2.58,3.13a2.33,2.33,0,0,0,2.2-1.62,2.77,2.77,0,0,0,.12-.85Z" transform="translate(-3.65 -6.09)"/>
    <path class="cls-2" d="M256.27,95.79c0,.9,0,1.7.07,2.38h-1.41l-.09-1.42h0a3.3,3.3,0,0,1-2.88,1.62c-1.37,0-3-.76-3-3.82V89.46h1.58v4.82c0,1.66.51,2.78,1.95,2.78a2.23,2.23,0,0,0,2.23-2.26V89.46h1.59Z" transform="translate(-3.65 -6.09)"/>
    <path class="cls-2" d="M258.89,92.18c0-1,0-1.91-.07-2.72h1.39l.05,1.71h.07a2.62,2.62,0,0,1,2.41-1.91,2,2,0,0,1,.45,0v1.5a2.12,2.12,0,0,0-.54-.06,2.23,2.23,0,0,0-2.12,2,4,4,0,0,0-.07.74v4.64h-1.57Z" transform="translate(-3.65 -6.09)"/>
    <path class="cls-2" d="M269.51,98.17l-.12-1.1h-.06a3.22,3.22,0,0,1-2.66,1.3,2.48,2.48,0,0,1-2.67-2.5c0-2.11,1.88-3.26,5.24-3.24v-.18a1.8,1.8,0,0,0-2-2,4.33,4.33,0,0,0-2.27.65l-.36-1a5.41,5.41,0,0,1,2.87-.77c2.66,0,3.31,1.82,3.31,3.56v3.26a13.14,13.14,0,0,0,.14,2.09Zm-.23-4.45c-1.73,0-3.69.27-3.69,2a1.4,1.4,0,0,0,1.49,1.51,2.16,2.16,0,0,0,2.11-1.46,1.76,1.76,0,0,0,.09-.5Z" transform="translate(-3.65 -6.09)"/>
    <path class="cls-2" d="M275.2,87v2.51h2.27v1.2H275.2v4.7c0,1.08.31,1.7,1.19,1.7a3.75,3.75,0,0,0,.92-.11l.07,1.19a4.06,4.06,0,0,1-1.41.21,2.21,2.21,0,0,1-1.71-.66,3.25,3.25,0,0,1-.61-2.27V90.66H272.3v-1.2h1.35V87.37Z" transform="translate(-3.65 -6.09)"/>
    <path class="cls-2" d="M281,87a.93.93,0,0,1-1,1,.94.94,0,0,1-.95-1,1,1,0,0,1,1-1A.93.93,0,0,1,281,87Zm-1.76,11.16V89.46h1.58v8.71Z" transform="translate(-3.65 -6.09)"/>
    <path class="cls-2" d="M291.35,93.74A4.26,4.26,0,0,1,287,98.37a4.14,4.14,0,0,1-4.18-4.48c0-2.92,1.91-4.63,4.32-4.63A4.13,4.13,0,0,1,291.35,93.74Zm-6.92.09c0,1.91,1.1,3.35,2.65,3.35s2.65-1.42,2.65-3.38c0-1.48-.74-3.35-2.61-3.35S284.43,92.18,284.43,93.83Z" transform="translate(-3.65 -6.09)"/>
    <path class="cls-2" d="M293.34,91.82c0-.9,0-1.64-.07-2.36h1.4l.1,1.44h0a3.2,3.2,0,0,1,2.88-1.64c1.21,0,3.08.72,3.08,3.71v5.2h-1.58v-5c0-1.41-.53-2.58-2-2.58A2.25,2.25,0,0,0,295,92.19a2.1,2.1,0,0,0-.11.74v5.24h-1.59Z" transform="translate(-3.65 -6.09)"/>
    <path class="cls-2" d="M308,94.1a2.8,2.8,0,0,0,3,3,5.75,5.75,0,0,0,2.41-.45l.27,1.13a7.09,7.09,0,0,1-2.9.54A4,4,0,0,1,306.52,94c0-2.63,1.55-4.7,4.09-4.7,2.84,0,3.6,2.5,3.6,4.1a5.31,5.31,0,0,1-.06.74ZM312.68,93a2.27,2.27,0,0,0-2.2-2.58A2.63,2.63,0,0,0,308.05,93Z" transform="translate(-3.65 -6.09)"/>
    <path class="cls-2" d="M323.69,85.39V95.92c0,.77,0,1.66.07,2.25h-1.42l-.07-1.51h0a3.21,3.21,0,0,1-3,1.71c-2.1,0-3.72-1.78-3.72-4.43,0-2.9,1.78-4.68,3.9-4.68a2.9,2.9,0,0,1,2.63,1.33h0v-5.2ZM322.11,93a3,3,0,0,0-.07-.66,2.34,2.34,0,0,0-2.29-1.84c-1.64,0-2.61,1.44-2.61,3.37,0,1.76.86,3.22,2.57,3.22A2.38,2.38,0,0,0,322,95.2a3,3,0,0,0,.07-.68Z" transform="translate(-3.65 -6.09)"/>
    <path class="cls-2" d="M328.08,87a.93.93,0,0,1-1,1,.94.94,0,0,1-.95-1,1,1,0,0,1,1-1A.93.93,0,0,1,328.08,87Zm-1.76,11.16V89.46h1.58v8.71Z" transform="translate(-3.65 -6.09)"/>
    <path class="cls-2" d="M332.44,87v2.51h2.27v1.2h-2.27v4.7c0,1.08.31,1.7,1.19,1.7a3.59,3.59,0,0,0,.91-.11l.08,1.19a4.06,4.06,0,0,1-1.41.21,2.2,2.2,0,0,1-1.71-.66,3.25,3.25,0,0,1-.61-2.27V90.66h-1.35v-1.2h1.35V87.37Z" transform="translate(-3.65 -6.09)"/>
    <path class="cls-2" d="M344.27,93.74a4.26,4.26,0,0,1-4.34,4.63,4.14,4.14,0,0,1-4.18-4.48c0-2.92,1.91-4.63,4.32-4.63A4.13,4.13,0,0,1,344.27,93.74Zm-6.92.09c0,1.91,1.1,3.35,2.65,3.35s2.65-1.42,2.65-3.38c0-1.48-.74-3.35-2.61-3.35S337.35,92.18,337.35,93.83Z" transform="translate(-3.65 -6.09)"/>
    <path class="cls-2" d="M346.26,92.18c0-1,0-1.91-.07-2.72h1.39l.05,1.71h.07a2.62,2.62,0,0,1,2.42-1.91,2,2,0,0,1,.44,0v1.5a2.12,2.12,0,0,0-.54-.06,2.23,2.23,0,0,0-2.12,2,4,4,0,0,0-.07.74v4.64h-1.57Z" transform="translate(-3.65 -6.09)"/>
    <path class="cls-2" d="M350.82,97.23a1.06,1.06,0,0,1,1.08-1.13A1,1,0,0,1,353,97.23a1.07,1.07,0,1,1-2.14,0Z" transform="translate(-3.65 -6.09)"/>
  </g>
</svg>
